<?xml version="1.0" encoding="utf-8"?>
<!-- Generator: Adobe Illustrator 17.1.0, SVG Export Plug-In . SVG Version: 6.00 Build 0)  -->
<!DOCTYPE svg PUBLIC "-//W3C//DTD SVG 1.1//EN" "http://www.w3.org/Graphics/SVG/1.1/DTD/svg11.dtd">
<svg version="1.1" id="Layer_1" xmlns="http://www.w3.org/2000/svg" xmlns:xlink="http://www.w3.org/1999/xlink" x="0px" y="0px"
	 viewBox="0 0 200 200" enable-background="new 0 0 200 200" xml:space="preserve">
<g>
	<path fill="#FFFFFF" d="M15,54.4h169.6c8.4,0,15.2-6.8,15.2-15.2S193,24,184.6,24H15C6.6,24-0.2,30.8-0.2,39.2S6.6,54.4,15,54.4z"
		/>
	<path fill="#FFFFFF" d="M184.6,83H15C6.6,83-0.2,89.8-0.2,98.2s6.8,15.2,15.2,15.2h169.6c8.4,0,15.2-6.8,15.2-15.2S193,83,184.6,83
		z"/>
	<path fill="#FFFFFF" d="M184.6,145.6H15c-8.4,0-15.2,6.8-15.2,15.2c0,8.4,6.8,15.2,15.2,15.2h169.6c8.4,0,15.2-6.8,15.2-15.2
		C199.8,152.4,193,145.6,184.6,145.6z"/>
</g>
</svg>
