<?xml version="1.0" encoding="utf-8"?>
<!-- Generator: Adobe Illustrator 17.1.0, SVG Export Plug-In . SVG Version: 6.00 Build 0)  -->
<!DOCTYPE svg PUBLIC "-//W3C//DTD SVG 1.1//EN" "http://www.w3.org/Graphics/SVG/1.1/DTD/svg11.dtd">
<svg version="1.1" id="Layer_1" xmlns="http://www.w3.org/2000/svg" xmlns:xlink="http://www.w3.org/1999/xlink" x="0px" y="0px"
	 viewBox="0 0 800 800" enable-background="new 0 0 800 800" xml:space="preserve">
<path fill="#FFFFFF" stroke="#FFFFFF" stroke-width="7" d="M751,251.7c-19.2-45.4-46.7-86.1-81.6-121.1c-35-35-75.7-62.5-121.1-81.6C501.3,29.1,451.4,19,400,19
	c-51.4,0-101.3,10.1-148.3,29.9c-45.4,19.2-86.1,46.7-121.1,81.6s-62.5,75.7-81.6,121.1C29,298.7,19,348.6,19,400
	c0,51.4,10.1,101.3,29.9,148.3c19.2,45.4,46.7,86.1,81.6,121.1c35,35,75.7,62.5,121.1,81.6c47,19.9,96.9,29.9,148.3,29.9
	c51.4,0,101.3-10.1,148.3-29.9c45.4-19.2,86.1-46.7,121.1-81.6c35-35,62.5-75.7,81.6-121.1c19.9-47,29.9-96.9,29.9-148.3
	C781,348.6,770.9,298.7,751,251.7z M740,543.6c-18.6,43.9-45.2,83.4-79.1,117.3c-33.9,33.9-73.4,60.5-117.3,79.1
	c-45.5,19.2-93.8,29-143.6,29s-98.1-9.8-143.6-29c-43.9-18.6-83.4-45.2-117.3-79.1c-33.9-33.9-60.5-73.4-79.1-117.3
	C40.7,498.1,31,449.8,31,400s9.8-98.1,29-143.6c18.6-43.9,45.2-83.4,79.1-117.3S212.4,78.6,256.3,60c45.5-19.2,93.8-29,143.6-29
	s98.1,9.8,143.6,29c43.9,18.6,83.4,45.2,117.3,79.1c33.9,33.9,60.5,73.4,79.1,117.3c19.2,45.5,29,93.8,29,143.6
	S759.2,498.1,740,543.6z"/>
<path fill="#FFFFFF" d="M495.8,195.9c0,0-39.2,0-65.2,0c-38.7,0-81.8,16.3-81.8,72.4c0.2,19.6,0,38.3,0,59.4H304v71.3h46.2v205.2
	H435V397.6h56l5.1-70.1h-62.5c0,0,0.1-31.2,0-40.2c0-22.2,23.1-20.9,24.5-20.9c11,0,32.3,0,37.8,0L495.8,195.9L495.8,195.9z"/>
</svg>
