<?xml version="1.0" encoding="utf-8"?>
<!-- Generator: Adobe Illustrator 17.1.0, SVG Export Plug-In . SVG Version: 6.00 Build 0)  -->
<!DOCTYPE svg PUBLIC "-//W3C//DTD SVG 1.1//EN" "http://www.w3.org/Graphics/SVG/1.1/DTD/svg11.dtd">
<svg version="1.1" id="Layer_1" xmlns="http://www.w3.org/2000/svg" xmlns:xlink="http://www.w3.org/1999/xlink" x="0px" y="0px"
	 viewBox="0 0 800 800" enable-background="new 0 0 800 800" xml:space="preserve">
<path fill="#FFFFFF" d="M765.6,173.3c-27.4,12.1-56.4,20.1-86.2,23.6c30.9-18.6,54.7-48,65.9-83c-29.4,17.5-61.7,29.8-95.2,36.4
	c-28.4-30.3-68-47.4-109.5-47.4c-82.8,0-150,67.1-150,150c0,11.8,1.3,23.2,3.9,34.2c-124.7-6.3-235.2-65.9-309.2-156.7
	c-12.9,22.1-20.3,47.9-20.3,75.4c0,52,26.5,97.9,66.7,124.8c-23.8-0.7-47.1-7.2-68-18.8v1.9c0,72.6,51.7,133.3,120.3,147.1
	c-22.1,6-45.2,6.9-67.7,2.6c19.1,59.6,74.5,102.9,140.1,104.2c-51.3,40.2-116,64.2-186.3,64.2c-12,0-23.9-0.7-35.8-2.1
	c66.4,42.5,145.2,67.4,229.9,67.4c275.9,0,426.8-228.6,426.8-426.8c0-6.5,0-13-0.5-19.4C720,229.6,745.4,203.4,765.6,173.3
	L765.6,173.3z"/>
</svg>
