<?xml version="1.0" encoding="utf-8"?>
<!-- Generator: Adobe Illustrator 17.1.0, SVG Export Plug-In . SVG Version: 6.00 Build 0)  -->
<!DOCTYPE svg PUBLIC "-//W3C//DTD SVG 1.1//EN" "http://www.w3.org/Graphics/SVG/1.1/DTD/svg11.dtd">
<svg version="1.1" id="Layer_1" xmlns="http://www.w3.org/2000/svg" xmlns:xlink="http://www.w3.org/1999/xlink" x="0px" y="0px"
	 viewBox="0 0 800 800" enable-background="new 0 0 800 800" xml:space="preserve">
<path fill="#FFFFFF" d="M617.9,219.4c-18.6,11-38.9,18.8-60.1,23c-17.9-19.1-42.9-29.9-69.1-29.9c-52.3,0-94.7,42.3-94.7,94.7
	c0,7.4,0.8,14.6,2.5,21.6c-78.7-4-148.4-41.6-195.1-98.9c-8.1,13.9-12.8,30.2-12.8,47.6c0,32.8,16.7,61.8,42.1,78.8
	c-15-0.4-29.7-4.5-42.9-11.9v1.2c0,45.8,32.6,84.1,75.9,92.8c-13.9,3.8-28.5,4.4-42.7,1.6c12.1,37.6,47,64.9,88.4,65.8
	c-32.4,25.4-73.2,40.5-117.6,40.5c-7.6,0-15.1-0.4-22.6-1.3c41.9,26.8,91.6,42.5,145.1,42.5c174.1,0,269.4-144.3,269.4-269.4
	c0-4.1,0-8.2-0.3-12.2c18.6-13.4,34.6-30,47.4-49c-17.3,7.6-35.6,12.7-54.4,14.9C595.8,260.1,610.8,241.5,617.9,219.4z"/>
<path fill="#FFFFFF" d="M751,251.7c-19.2-45.4-46.7-86.1-81.6-121.1c-35-35-75.7-62.5-121.1-81.6C501.3,29.1,451.4,19,400,19
	c-51.4,0-101.3,10.1-148.3,29.9c-45.4,19.2-86.1,46.7-121.1,81.6s-62.5,75.7-81.6,121.1C29,298.7,19,348.6,19,400
	c0,51.4,10.1,101.3,29.9,148.3c19.2,45.4,46.7,86.1,81.6,121.1c35,35,75.7,62.5,121.1,81.6c47,19.9,96.9,29.9,148.3,29.9
	c51.4,0,101.3-10.1,148.3-29.9c45.4-19.2,86.1-46.7,121.1-81.6c35-35,62.5-75.7,81.6-121.1c19.9-47,29.9-96.9,29.9-148.3
	C781,348.6,770.9,298.7,751,251.7z M740,543.6c-18.6,43.9-45.2,83.4-79.1,117.3c-33.9,33.9-73.4,60.5-117.3,79.1
	c-45.5,19.2-93.8,29-143.6,29s-98.1-9.8-143.6-29c-43.9-18.6-83.4-45.2-117.3-79.1c-33.9-33.9-60.5-73.4-79.1-117.3
	C40.7,498.1,31,449.8,31,400s9.8-98.1,29-143.6c18.6-43.9,45.2-83.4,79.1-117.3S212.4,78.6,256.3,60c45.5-19.2,93.8-29,143.6-29
	s98.1,9.8,143.6,29c43.9,18.6,83.4,45.2,117.3,79.1c33.9,33.9,60.5,73.4,79.1,117.3c19.2,45.5,29,93.8,29,143.6
	S759.2,498.1,740,543.6z"/>
</svg>
