<?xml version="1.0" encoding="utf-8"?>
<!-- Generator: Adobe Illustrator 17.1.0, SVG Export Plug-In . SVG Version: 6.00 Build 0)  -->
<!DOCTYPE svg PUBLIC "-//W3C//DTD SVG 1.1//EN" "http://www.w3.org/Graphics/SVG/1.1/DTD/svg11.dtd">
<svg version="1.1" id="Layer_1" xmlns="http://www.w3.org/2000/svg" xmlns:xlink="http://www.w3.org/1999/xlink" x="0px" y="0px"
	 viewBox="0 0 13 30" enable-background="new 0 0 13 30" xml:space="preserve">
<path fill="#231F20" d="M6.5,0C2.9,0,0,2.9,0,6.5C0,10.1,2.9,13,6.5,13S13,10.1,13,6.5C13,2.9,10.1,0,6.5,0z M6.5,12
	C3.5,12,1,9.5,1,6.5S3.5,1,6.5,1c3,0,5.5,2.5,5.5,5.5S9.5,12,6.5,12z"/>
<path fill="#231F20" d="M6.5,17C2.9,17,0,19.9,0,23.5C0,27.1,2.9,30,6.5,30s6.5-2.9,6.5-6.5C13,19.9,10.1,17,6.5,17z M6.5,29
	c-3,0-5.5-2.5-5.5-5.5S3.5,18,6.5,18c3,0,5.5,2.5,5.5,5.5S9.5,29,6.5,29z"/>
<path fill="#231F20" d="M6.5,26.5c-1.7,0-3-1.3-3-3c0-1.7,1.3-3,3-3c1.7,0,3,1.3,3,3C9.5,25.2,8.2,26.5,6.5,26.5z"/>
</svg>
