<?xml version="1.0" encoding="utf-8"?>
<!-- Generator: Adobe Illustrator 17.1.0, SVG Export Plug-In . SVG Version: 6.00 Build 0)  -->
<!DOCTYPE svg PUBLIC "-//W3C//DTD SVG 1.1//EN" "http://www.w3.org/Graphics/SVG/1.1/DTD/svg11.dtd">
<svg version="1.1" id="Layer_1" xmlns="http://www.w3.org/2000/svg" xmlns:xlink="http://www.w3.org/1999/xlink" x="0px" y="0px"
	 viewBox="0 0 200 200" enable-background="new 0 0 200 200" xml:space="preserve">
<path fill="#FFFFFF" stroke="#FFFFFF" d="M155.7,167.5c-7.8,6.2-16.6,11.4-26.3,15.1c-9.9,3.7-19.8,5.4-29.7,5.4
	c-12.3,0-23.7-2.4-34.5-6.9c-10.8-4.5-20-10.8-28.2-18.7c-8-8-14.4-17.2-19-28c-4.7-10.8-7.1-22.2-7.1-34.5
	c0-11.9,2.4-23.3,7.1-33.8c4.7-10.6,11-20,19.2-28s17.5-14.2,28.4-18.7c10.8-4.5,22.2-6.9,34.5-6.9c11.6,0,23.1,2.2,33.8,6.9
	c10.8,4.5,20,10.8,28.2,18.7c8,8,14.4,17,19.2,27.6c4.7,10.6,7.1,21.8,7.1,33.8s-2.2,23.3-6.5,33.2c-4.3,10.1-10.6,19.6-18.5,28.7
	l22.4,24.3h-14.7L155.7,167.5z M155.5,153.3c6.9-7.3,12.3-15.3,16.2-23.7s5.8-17.7,5.8-28c0-10.8-1.9-20.9-6-30.4
	c-4.1-9.5-9.5-17.9-16.4-25S140,33.3,130.5,29s-19.6-6.2-30.6-6.2c-10.6,0-20.7,2.2-30.2,6.2S52.1,38.7,45,45.8S32.3,61.1,28.2,70.4
	c-4.1,9.5-6.2,19.4-6.2,30c0,10.8,2.2,20.9,6.2,30.2c4.1,9.5,9.7,17.7,16.8,24.6c7.1,7.1,15.5,12.5,25,16.6c9.5,4.1,19.6,6,30.4,6
	c8.6,0,17-1.7,25.2-5s15.7-7.5,22.4-12.9l-42.7-44.2h15.5L155.5,153.3z"/>
</svg>
